<?xml version="1.0" encoding="utf-8"?>
<!-- Generator: Adobe Illustrator 23.0.2, SVG Export Plug-In . SVG Version: 6.00 Build 0)  -->
<svg version="1.1" xmlns="http://www.w3.org/2000/svg" xmlns:xlink="http://www.w3.org/1999/xlink" x="0px" y="0px"
	 viewBox="0 0 43.8 49.3" style="enable-background:new 0 0 43.8 49.3;" xml:space="preserve">
<style type="text/css">
	.st0{fill:#4E4E4E;}
	.st1{fill:#3399FF;}
	.st2{fill:#3366FF;}
	.st3{fill:#3341FF;}
	.st4{fill:#1987EA;}
	.st5{fill:#3FBFFE;}
	.st6{fill:#66CCFF;}
</style>
<g id="Calque_1">
	<g id="background">
		<g>
			<path class="st0" d="M0.2,35c0,4.7,3.8,8.5,8.5,8.5h26.4c4.7,0,8.5-3.8,8.5-8.5V8.7c0-4.7-3.8-8.5-8.5-8.5H8.7
				C4,0.1,0.2,4,0.2,8.7V35z"/>
		</g>
	</g>
</g>
<g id="Calque_2">
	<polygon class="st1" points="7,13.6 14.5,8.3 21.9,13.6 14.5,18.7 	"/>
	<polygon class="st2" points="21.9,13.6 29.3,18.7 21.9,23.9 14.5,18.7 	"/>
	<polygon class="st3" points="21.9,13.6 29.3,8.3 36.8,13.5 29.3,18.7 	"/>
	<polygon class="st2" points="29.3,18.7 29.3,32.1 36.8,26.8 36.8,13.5 	"/>
	<polygon class="st4" points="29.3,18.7 21.9,23.9 21.9,37.3 29.3,32.1 	"/>
	<polygon class="st5" points="21.9,23.9 14.5,18.7 14.5,32.1 21.9,37.3 	"/>
	<polygon class="st6" points="14.5,18.7 7,13.6 7,26.8 14.5,32.1 	"/>
</g>
</svg>
